<svg id="Capa_1" enable-background="new 0 0 512 512" height="512" viewBox="0 0 512 512" width="512" xmlns="http://www.w3.org/2000/svg"><g><path d="m112.804 141.09 111.327 83.041v-80.852c0-57.612-34.008-107.273-83.041-130.028z" fill="#00aa95"/><path d="m13.252 141.09c22.754 49.032 72.415 83.041 130.027 83.041h80.852l-97.184-97.184z" fill="#00cc76"/><path d="m141.09 13.252c-18.314-8.499-38.72-13.252-60.238-13.252h-80.852l63.028 91.314 78.062 49.776z" fill="#00cc76"/><path d="m0 0v80.852c0 21.519 4.753 41.925 13.252 60.238h127.838z" fill="#9cdd05"/><path d="m399.196 141.09-111.327 83.041v-80.852c0-57.612 34.008-107.273 83.041-130.028z" fill="#00cc76"/><path d="m498.748 141.09c-22.754 49.032-72.415 83.041-130.027 83.041h-80.852l97.184-97.184z" fill="#00aa95"/><path d="m370.91 13.252c18.314-8.499 38.72-13.252 60.238-13.252h80.852l-63.028 91.314-78.062 49.776z" fill="#9cdd05"/><path d="m512 0v80.852c0 21.519-4.753 41.925-13.252 60.238h-127.838z" fill="#00cc76"/><path d="m399.196 370.91-111.327-83.041v80.852c0 57.612 34.008 107.273 83.041 130.027z" fill="#00aa95"/><path d="m498.748 370.91c-22.754-49.032-72.415-83.041-130.027-83.041h-80.852l97.184 97.184z" fill="#00cc76"/><path d="m370.91 498.748c18.314 8.499 38.72 13.252 60.238 13.252h80.852l-63.028-91.314-78.062-49.776z" fill="#00cc76"/><path d="m512 512v-80.852c0-21.519-4.753-41.925-13.252-60.238h-127.838z" fill="#9cdd05"/><path d="m112.804 370.91 111.327-83.041v80.852c0 57.612-34.008 107.273-83.041 130.027z" fill="#00cc76"/><path d="m13.252 370.91c22.754-49.032 72.415-83.041 130.027-83.041h80.852l-97.184 97.184z" fill="#00aa95"/><path d="m141.09 498.748c-18.314 8.499-38.72 13.252-60.238 13.252h-80.852l63.028-91.314 78.062-49.776z" fill="#9cdd05"/><path d="m0 512v-80.852c0-21.519 4.753-41.925 13.252-60.238h127.838z" fill="#00cc76"/></g></svg>