<svg id="Capa_1" enable-background="new 0 0 386.176 386.176" height="512" viewBox="0 0 386.176 386.176" width="512" xmlns="http://www.w3.org/2000/svg" xmlns:xlink="http://www.w3.org/1999/xlink"><pattern id="SVGID_1_2" height="10.04" overflow="visible" patternUnits="userSpaceOnUse" viewBox="0 -10.04 10.04 10.04" width="10.04" x="-112.392" y="587.509"><g><path d="m0-10.04h10.04v10.04h-10.04z" fill="none"/><g><path d="m0-10.04h10.04v10.04h-10.04z" fill="none"/><path d="m0-10.04h10.04v10.04h-10.04z" fill="none"/><path d="m0-10.04h10.04v10.04h-10.04z" fill="#90a542"/></g></g></pattern><pattern id="SVGID_2_" height="10.04" overflow="visible" patternUnits="userSpaceOnUse" viewBox="0 -10.04 10.04 10.04" width="10.04" x="-112.392" y="587.509"><g><path d="m0-10.04h10.04v10.04h-10.04z" fill="none"/><g><path d="m0-10.04h10.04v10.04h-10.04z" fill="none"/><path d="m0-10.04h10.04v10.04h-10.04z" fill="none"/><path d="m0-10.04h10.04v10.04h-10.04z" fill="#90a542"/></g></g></pattern><pattern id="SVGID_1_" patternTransform="matrix(7.533 2.644 2.644 -7.533 57717.52 -18900.166)" xlink:href="#SVGID_1_2"/><pattern id="SVGID_3_" patternTransform="matrix(3.392 4.191 4.191 -3.392 -30151.363 -7664.61)" xlink:href="#SVGID_2_"/><g><g><path d="m208.056 363.128 25.542-30.431c-22.1-21.85-42.803-42.953-52.98-69.842-5.272-13.177-7.275-27.436-5.837-41.556 2.286-14.343 7.983-27.928 16.612-39.61 8.581-12.722 19.057-24.944 28.087-39.311 9.892-14.651 16.229-31.409 18.508-48.94 4.24-34.921-7.235-71.688-29.933-93.438 20.703 24.345 27.687 60.563 21.003 91.493-3.289 15.079-10.131 29.154-19.954 41.057-9.628 11.973-21.003 22.649-31.479 35.419-12.236 13.714-20.906 30.231-25.242 48.091-3.881 19.17-3.041 38.996 2.445 57.77 5.125 17.615 12.986 34.315 23.298 49.487 9.275 13.783 19.266 27.07 29.93 39.811z" fill="#5fa348"/><path d="m354.474 385.827c-17.991-25.467-47.242-40.594-78.423-40.559-2.245 0-4.439 0-6.685.35-31.301-42.816-91.386-52.15-134.202-20.848-7.981 5.834-15.013 12.867-20.848 20.848-1.397 0-2.793 0-4.191 0-31.177-.019-60.421 15.105-78.423 40.559z" fill="#fcd462"/><path d="m187.303 269.29c-.755-1.626-1.42-3.291-1.996-4.989-1.577-4.664-2.664-9.479-3.242-14.368-1.911-16.446 1.875-33.05 10.726-47.044 6.011-9.428 14.057-17.389 23.546-23.298 11.316-7.077 24.2-11.258 37.515-12.173 15.415-1.088 30.839 1.996 44.649 8.93 15.955 7.902 29.153 20.439 37.864 35.968l-3.842 1.946c-2.545 1.297-6.235 3.242-10.776 5.987-12.374 7.328-23.559 16.496-33.175 27.188-6.832 7.547-14.093 14.692-21.75 21.402-5.789 5.619-12.421 10.299-19.656 13.869-7.566 3.237-15.947 4.056-23.995 2.345-12.981-2.514-25.237-7.901-35.868-15.763z" fill="#65b54e"/><path d="m305.534 200.496c3.276.49 6.523 1.156 9.727 1.996-26.013-11.002-55.558-9.943-80.717 2.893 5.237-6.181 9.401-13.196 12.322-20.753 1.015-2.588 1.491-5.354 1.397-8.131-5.48 11.313-12.064 22.057-19.656 32.077-15.722 9.309-28.46 22.913-36.717 39.211-5.103 9.992-8.092 20.929-8.78 32.127-.057 3.356 2.157 6.326 5.388 7.234 4.989 1.546 8.63 11.573 8.031 6.934-1.996-13.17 2.943-42.803 10.376-54.228 12.347-6.4 26.792-7.41 39.91-2.793 6.206 2.003 11.989 5.132 17.061 9.23-7.782-8.415-17.859-14.364-28.984-17.111-6.572-1.636-13.463-1.48-19.954.449 8.594-9.36 19.088-16.776 30.78-21.75 5.246-2.286 10.689-4.09 16.264-5.388 7.341.278 14.422 2.783 20.304 7.184 2.179 1.674 4.068 3.696 5.588 5.987-3.715-7.096-10.051-12.465-17.66-14.966 3.292-.549 6.535-.997 9.628-1.247 8.577-.655 17.199-.303 25.692 1.045z" fill="#5fa348"/><path d="m287.874 215.661c.399.749.799 1.446 1.197 2.245-.358-.769-.758-1.518-1.197-2.245z" fill="url(#SVGID_1_)"/><path d="m236.89 81.316c.163-1.259.397-2.508.699-3.742 3.323-14.297 12.932-26.326 26.141-32.726 6.821-3.27 14.286-4.975 21.85-4.989 9.04-.085 17.958 2.093 25.941 6.335 9.252 4.846 17.038 12.081 22.549 20.953 6.373 10.244 9.519 22.167 9.03 34.222h-2.943c-1.896 0-4.689-.35-8.281-.399-9.735-.145-19.437 1.166-28.784 3.892-6.555 1.919-13.22 3.452-19.954 4.589-5.344 1.234-10.849 1.621-16.314 1.147-5.604-.916-10.792-3.529-14.866-7.484-6.574-6.061-11.72-13.507-15.068-21.798z" fill="#65b54e"/><path d="m329.48 83.661c3.193 2.793 4.989 4.639 4.989 4.639-11.086-15.581-28.483-25.476-47.542-27.038 5.207-1.689 10.098-4.235 14.468-7.533 1.51-1.144 2.765-2.588 3.692-4.241-7.175 4.566-14.778 8.425-22.699 11.523-12.313-.188-24.426 3.135-34.921 9.578-6.503 3.928-12.139 9.139-16.562 15.315-1.213 1.928-.966 4.432.599 6.086 2.295 2.643.849 9.727 2.145 6.834 5.89-11.208 14.588-20.697 25.242-27.538 9.329.686 17.96 5.2 23.846 12.472 2.875 3.364 5.091 7.24 6.535 11.424-1.498-7.542-5.175-14.481-10.576-19.954-3.289-3.373-7.425-5.802-11.973-7.034 8.357-2.333 17.116-2.861 25.692-1.546 3.825.592 7.595 1.492 11.274 2.693 4.124 2.758 7.309 6.71 9.13 11.324.664 1.755 1.018 3.611 1.047 5.488.372-5.451-1.42-10.829-4.989-14.966 2.096.849 4.141 1.796 5.987 2.743 5.229 2.674 10.134 5.938 14.616 9.731z" fill="#5fa348"/><path d="m313.865 86.155c.048.564.048 1.132 0 1.696.04-.564.04-1.131 0-1.696z" fill="url(#SVGID_3_)"/><path d="m158.517 184.382s11.823 12.023 2.495 8.031-41.905-14.468-52.332-19.456c-14.071-9.366-24.07-23.716-27.987-40.159-2.922-9.231-7.356-17.913-13.12-25.692 0 0 .499-.897 1.696-2.693 1.79-2.677 3.846-5.168 6.135-7.434 9.795-9.36 22.101-15.669 35.419-18.158 13.836-2.194 28 .656 39.91 8.031 14.24 8.36 25.562 20.9 32.426 35.918 6.174 12.272 7.284 26.477 3.093 39.56-4.137 11.028-13.417 18.66-27.735 22.052z" fill="#65b54e"/><path d="m171.688 185.63c-9.578-9.28-19.954-20.703-27.787-28.784-2.231-12.036-3.698-24.2-4.391-36.419-1.197-11.324-2.693-20.304-2.693-20.304.35 14.668-.649 24.944-.849 32.676-.421 5.513-.187 11.055.699 16.512-8.719-9.35-18.439-17.715-28.984-24.944-2.73-4.259-4.767-8.923-6.037-13.819-.599-2.438-.966-4.927-1.097-7.434-.311 6.273.621 12.547 2.743 18.458-1.746-1.047-3.492-2.046-4.989-2.943-4.328-2.329-8.83-4.314-13.469-5.937-3.242-1.147-4.989-1.696-4.989-1.696 13.175 8 25.584 17.202 37.067 27.488-5.71-1.134-11.634-.363-16.861 2.195-2.056.971-3.984 2.194-5.737 3.642 7.837-4.223 16.992-5.294 25.592-2.993 16.07 16.209 30.431 34.03 42.853 53.179 1.662 2.502 4.881 3.45 7.633 2.245 3.328-1.839 4.536-6.027 2.698-9.354-.368-.662-.841-1.26-1.402-1.768z" fill="#5fa348"/></g></g></svg>